<?xml version="1.0" encoding="utf-8"?>
<!-- Generator: Adobe Illustrator 26.3.1, SVG Export Plug-In . SVG Version: 6.00 Build 0)  -->
<svg version="1.1" id="图层_1" xmlns="http://www.w3.org/2000/svg" xmlns:xlink="http://www.w3.org/1999/xlink" x="0px" y="0px"
	 viewBox="0 0 1024 1024" style="enable-background:new 0 0 1024 1024;" xml:space="preserve">
<style type="text/css">
	.st0{fill:#D3AB78;}
	.st1{fill:#CC7C5E;}
	.st2{fill:#52524F;}
</style>
<g>
	<g>
		<path class="st0" d="M419.94,501.95L149.43,333.53c-22.4-13.95-51.25,1.9-51.34,28.2l-1.13,321.95
			c-0.14,41.14,21.14,79.53,56.17,101.35l270.51,168.42c22.4,13.95,51.25-1.9,51.34-28.2l1.13-321.95
			C476.26,562.16,454.97,523.76,419.94,501.95z"/>
		<path class="st1" d="M820.47,194.24L532.28,44.36c-17.54-9.12-38.44-9.02-55.89,0.28L194.92,194.59
			c-42.62,22.71-42.31,83.89,0.53,106.17l291.62,177.31c17.54,9.12,38.44,9.02,55.89-0.28L821,300.41
			C863.62,277.71,863.31,216.52,820.47,194.24z"/>
		<path class="st2" d="M927.05,362.7c0.1-26.68-28.22-43.17-50.4-29.35L608.79,500.32c-34.69,21.62-55.95,60.27-56.11,102.01
			l-1.24,326.63c-0.1,26.68,28.22,43.17,50.4,29.35l86.81-54.11l71.41,82.22l5.17-129.95l104.48-65.12
			c34.69-21.63,55.95-60.27,56.11-102.01L927.05,362.7z"/>
	</g>
</g>
</svg>
